HIERARCHY
ROOT mixamorig:Hips
{
	OFFSET 0.00 0.00 0.00
	CHANNELS 6 Xposition Yposition Zposition Zrotation Yrotation Xrotation
	JOINT mixamorig:Spine
	{
		OFFSET	0.0000	9.9235	-1.2273
		CHANNELS 3 Zrotation Yrotation Xrotation
		JOINT mixamorig:Spine1
		{
			OFFSET	-0.0001	11.6455	-1.4224
			CHANNELS 3 Zrotation Yrotation Xrotation
			JOINT mixamorig:Spine2
			{
				OFFSET	0.0001	13.3602	-1.6265
				CHANNELS 3 Zrotation Yrotation Xrotation
				JOINT mixamorig:Neck
				{
					OFFSET	0.0000	15.0325	0.7929
					CHANNELS 3 Zrotation Yrotation Xrotation
					JOINT mixamorig:Head
					{
						OFFSET	-0.0000	10.3218	3.1424
						CHANNELS 3 Zrotation Yrotation Xrotation
						JOINT mixamorig:HeadTop_End
						{
							OFFSET	0.0002	18.4747	6.6364
							CHANNELS 3 Zrotation Yrotation Xrotation
							End Site
							{
								OFFSET 0.0000 0.0000 0.0000
							}
						}
						JOINT mixamorig:LeftEye
						{
							OFFSET	2.9479	7.6817	9.1207
							CHANNELS 3 Zrotation Yrotation Xrotation
							End Site
							{
								OFFSET 0.0000 0.0000 0.0000
							}
						}
						JOINT mixamorig:RightEye
						{
							OFFSET	-2.9445	7.6817	9.1205
							CHANNELS 3 Zrotation Yrotation Xrotation
							End Site
							{
								OFFSET 0.0000 0.0000 0.0000
							}
						}
					}
				}
				JOINT mixamorig:LeftShoulder
				{
					OFFSET	6.1059	9.1104	0.7056
					CHANNELS 3 Zrotation Yrotation Xrotation
					JOINT mixamorig:LeftArm
					{
						OFFSET	12.6532	-0.3431	-2.6009
						CHANNELS 3 Zrotation Yrotation Xrotation
						JOINT mixamorig:LeftForeArm
						{
							OFFSET	27.3517	-0.9645	-1.4034
							CHANNELS 3 Zrotation Yrotation Xrotation
							JOINT mixamorig:LeftHand
							{
								OFFSET	27.5619	-0.7072	1.5500
								CHANNELS 3 Zrotation Yrotation Xrotation
								JOINT mixamorig:LeftHandMiddle1
								{
									OFFSET	12.6630	-1.3962	0.9548
									CHANNELS 3 Zrotation Yrotation Xrotation
									JOINT mixamorig:LeftHandMiddle2
									{
										OFFSET	3.6093	-0.1669	0.0778
										CHANNELS 3 Zrotation Yrotation Xrotation
										JOINT mixamorig:LeftHandMiddle3
										{
											OFFSET	3.4004	-0.6274	0.1148
											CHANNELS 3 Zrotation Yrotation Xrotation
											End Site
											{
												OFFSET 3.6205 -0.6493 0.1199
											}
										}
									}
								}
								JOINT mixamorig:LeftHandThumb1
								{
									OFFSET	3.3268	-2.0474	3.5790
									CHANNELS 3 Zrotation Yrotation Xrotation
									JOINT mixamorig:LeftHandThumb2
									{
										OFFSET	3.4890	-1.4806	2.8548
										CHANNELS 3 Zrotation Yrotation Xrotation
										JOINT mixamorig:LeftHandThumb3
										{
											OFFSET	3.4086	-1.7658	2.1133
											CHANNELS 3 Zrotation Yrotation Xrotation
											End Site
											{
												OFFSET 2.7231 -1.1597 1.7903
											}
										}
									}
								}
								JOINT mixamorig:LeftHandIndex1
								{
									OFFSET	11.9722	-1.1061	3.7324
									CHANNELS 3 Zrotation Yrotation Xrotation
									JOINT mixamorig:LeftHandIndex2
									{
										OFFSET	3.8387	-0.6406	-0.0310
										CHANNELS 3 Zrotation Yrotation Xrotation
										JOINT mixamorig:LeftHandIndex3
										{
											OFFSET	3.3346	-0.7374	-0.0133
											CHANNELS 3 Zrotation Yrotation Xrotation
											End Site
											{
												OFFSET 2.9714 -0.8030 0.0009
											}
										}
									}
								}
								JOINT mixamorig:LeftHandRing1
								{
									OFFSET	12.1659	-1.6805	-1.2769
									CHANNELS 3 Zrotation Yrotation Xrotation
									JOINT mixamorig:LeftHandRing2
									{
										OFFSET	3.5925	-0.2366	-0.0771
										CHANNELS 3 Zrotation Yrotation Xrotation
										JOINT mixamorig:LeftHandRing3
										{
											OFFSET	3.2906	-0.3266	-0.0615
											CHANNELS 3 Zrotation Yrotation Xrotation
											End Site
											{
												OFFSET 3.5423 -0.9211 -0.0200
											}
										}
									}
								}
								JOINT mixamorig:LeftHandPinky1
								{
									OFFSET	11.0508	-2.1872	-3.8040
									CHANNELS 3 Zrotation Yrotation Xrotation
									JOINT mixamorig:LeftHandPinky2
									{
										OFFSET	4.1236	-0.3047	0.1212
										CHANNELS 3 Zrotation Yrotation Xrotation
										JOINT mixamorig:LeftHandPinky3
										{
											OFFSET	2.5805	-0.2597	0.0823
											CHANNELS 3 Zrotation Yrotation Xrotation
											End Site
											{
												OFFSET 2.9027 -0.3379 0.0963
											}
										}
									}
								}
							}
						}
					}
				}
				JOINT mixamorig:RightShoulder
				{
					OFFSET	-6.1057	9.1105	0.7056
					CHANNELS 3 Zrotation Yrotation Xrotation
					JOINT mixamorig:RightArm
					{
						OFFSET	-12.6532	-0.3429	-2.6009
						CHANNELS 3 Zrotation Yrotation Xrotation
						JOINT mixamorig:RightForeArm
						{
							OFFSET	-27.3518	-0.9642	-1.4034
							CHANNELS 3 Zrotation Yrotation Xrotation
							JOINT mixamorig:RightHand
							{
								OFFSET	-27.5619	-0.7068	1.5501
								CHANNELS 3 Zrotation Yrotation Xrotation
								JOINT mixamorig:RightHandMiddle1
								{
									OFFSET	-12.6630	-1.3960	0.9549
									CHANNELS 3 Zrotation Yrotation Xrotation
									JOINT mixamorig:RightHandMiddle2
									{
										OFFSET	-3.6093	-0.1669	0.0778
										CHANNELS 3 Zrotation Yrotation Xrotation
										JOINT mixamorig:RightHandMiddle3
										{
											OFFSET	-3.4004	-0.6273	0.1148
											CHANNELS 3 Zrotation Yrotation Xrotation
											End Site
											{
												OFFSET -3.6205 -0.6492 0.1199
											}
										}
									}
								}
								JOINT mixamorig:RightHandThumb1
								{
									OFFSET	-3.3269	-2.0474	3.5790
									CHANNELS 3 Zrotation Yrotation Xrotation
									JOINT mixamorig:RightHandThumb2
									{
										OFFSET	-3.4890	-1.4805	2.8548
										CHANNELS 3 Zrotation Yrotation Xrotation
										JOINT mixamorig:RightHandThumb3
										{
											OFFSET	-3.4086	-1.7658	2.1133
											CHANNELS 3 Zrotation Yrotation Xrotation
											End Site
											{
												OFFSET -2.7231 -1.1596 1.7903
											}
										}
									}
								}
								JOINT mixamorig:RightHandIndex1
								{
									OFFSET	-11.9722	-1.1059	3.7324
									CHANNELS 3 Zrotation Yrotation Xrotation
									JOINT mixamorig:RightHandIndex2
									{
										OFFSET	-3.8387	-0.6406	-0.0310
										CHANNELS 3 Zrotation Yrotation Xrotation
										JOINT mixamorig:RightHandIndex3
										{
											OFFSET	-3.3346	-0.7373	-0.0133
											CHANNELS 3 Zrotation Yrotation Xrotation
											End Site
											{
												OFFSET -2.9715 -0.8029 0.0009
											}
										}
									}
								}
								JOINT mixamorig:RightHandRing1
								{
									OFFSET	-12.1659	-1.6803	-1.2769
									CHANNELS 3 Zrotation Yrotation Xrotation
									JOINT mixamorig:RightHandRing2
									{
										OFFSET	-3.5925	-0.2366	-0.0771
										CHANNELS 3 Zrotation Yrotation Xrotation
										JOINT mixamorig:RightHandRing3
										{
											OFFSET	-3.2906	-0.3265	-0.0615
											CHANNELS 3 Zrotation Yrotation Xrotation
											End Site
											{
												OFFSET -3.5423 -0.9210 -0.0200
											}
										}
									}
								}
								JOINT mixamorig:RightHandPinky1
								{
									OFFSET	-11.0508	-2.1870	-3.8040
									CHANNELS 3 Zrotation Yrotation Xrotation
									JOINT mixamorig:RightHandPinky2
									{
										OFFSET	-4.1236	-0.3046	0.1212
										CHANNELS 3 Zrotation Yrotation Xrotation
										JOINT mixamorig:RightHandPinky3
										{
											OFFSET	-2.5805	-0.2597	0.0823
											CHANNELS 3 Zrotation Yrotation Xrotation
											End Site
											{
												OFFSET -2.9027 -0.3379 0.0963
											}
										}
									}
								}
							}
						}
					}
				}
			}
		}
	}
	JOINT mixamorig:RightUpLeg
	{
		OFFSET	-9.1245	-6.6564	-0.0554
		CHANNELS 3 Zrotation Yrotation Xrotation
		JOINT mixamorig:RightLeg
		{
			OFFSET	0.0000	-40.5610	-1.7662
			CHANNELS 3 Zrotation Yrotation Xrotation
			JOINT mixamorig:RightFoot
			{
				OFFSET	0.4978	-41.9625	-3.3512
				CHANNELS 3 Zrotation Yrotation Xrotation
				JOINT mixamorig:RightToeBase
				{
					OFFSET	-0.3734	-10.4922	12.6406
					CHANNELS 3 Zrotation Yrotation Xrotation
					End Site
					{
						OFFSET 0.0000 0.0000 9.9925
					}
				}
			}
		}
	}
	JOINT mixamorig:LeftUpLeg
	{
		OFFSET	9.1245	-6.6564	-0.0554
		CHANNELS 3 Zrotation Yrotation Xrotation
		JOINT mixamorig:LeftLeg
		{
			OFFSET	-0.0000	-40.5610	-1.7662
			CHANNELS 3 Zrotation Yrotation Xrotation
			JOINT mixamorig:LeftFoot
			{
				OFFSET	-0.4978	-41.9625	-3.3512
				CHANNELS 3 Zrotation Yrotation Xrotation
				JOINT mixamorig:LeftToeBase
				{
					OFFSET	0.3734	-10.4922	12.6406
					CHANNELS 3 Zrotation Yrotation Xrotation
					End Site
					{
						OFFSET -0.0000 0.0000 9.9925
					}
				}
			}
		}
	}
}
MOTION
Frames: 8
Frame Time: 0.0333333
-0.5938 61.7539 -0.2786 -4.2469 -7.6042 -17.5116 2.7097 1.8460 6.0603 2.4700 0.1289 10.7358 2.5243 0.1774 10.7238 -0.7632 0.6375 -4.0937 3.3262 2.2985 -12.4407 0.0000 -0.0000 0.0000 0.0000 -0.0000 0.0000 0.0000 -0.0000 0.0000 -10.4375 0.3004 1.2102 -36.8330 -53.6714 4.4092 3.9903 -75.7459 -5.8192 31.5937 1.7294 7.1908 -87.1094 -1.6571 6.2427 -70.9430 -1.1015 2.6914 -39.6449 -1.2089 1.4981 -27.4483 -18.7358 32.1473 -5.5251 62.3419 19.9715 -8.9433 34.2455 9.4252 -80.4976 -3.9980 5.4563 -75.7546 -2.3194 0.7088 -36.7108 -1.1480 0.0261 -86.2711 -4.2124 5.9539 -76.8278 -3.0187 0.3007 -30.4437 -0.8571 -0.2879 -85.1995 2.6824 6.4680 -77.1861 -2.2346 7.2130 -38.4633 -1.0859 1.5043 11.6053 12.7391 5.9128 9.0815 34.5124 -15.9568 -4.3674 76.6064 -6.2068 -35.1370 -1.3219 -0.1216 86.1877 1.6498 6.1425 58.2507 1.0356 2.0868 33.3080 1.0561 1.2041 33.6990 6.2953 18.2953 2.0303 -66.5608 -0.7284 1.4420 -34.0007 2.3785 79.5558 3.9803 5.3565 63.0725 1.9407 0.3483 30.3755 0.8912 -0.0324 85.3288 4.2048 5.8529 64.1459 2.5139 -0.0702 24.1119 0.5466 -0.2704 84.5727 1.3717 6.0587 64.5375 1.1142 2.6754 32.1272 0.9374 1.2040 1.1861 -5.9864 -71.8471 -0.3320 0.0071 47.7256 12.6204 -5.4200 40.6344 -0.0000 -0.0000 0.0000 3.7809 13.0543 -74.0897 9.1989 -1.9231 94.2958 5.8408 3.5426 -3.1539 -0.0000 -0.0000 -0.0835 
-0.5884 61.7535 -0.2892 -4.2372 -7.6506 -17.5583 2.7027 1.8712 6.1239 2.4045 0.1450 10.8372 2.4613 0.1956 10.8250 -0.6995 0.6049 -4.0537 3.2850 2.1873 -12.2587 0.0000 -0.0000 0.0000 0.0000 -0.0000 0.0000 0.0000 -0.0000 0.0000 -10.3811 0.2793 1.2137 -36.8357 -53.5980 4.1398 4.0020 -75.7740 -5.8312 31.9331 1.5659 7.0380 -87.1094 -1.6570 6.2427 -70.9430 -1.1015 2.6914 -39.6449 -1.2089 1.4981 -27.4483 -18.7358 32.1473 -5.5251 62.3419 19.9714 -8.9433 34.2455 9.4252 -80.4976 -3.9980 5.4562 -75.7546 -2.3194 0.7088 -36.7108 -1.1480 0.0261 -86.2711 -4.2124 5.9539 -76.8278 -3.0187 0.3008 -30.4437 -0.8571 -0.2879 -85.1995 2.6824 6.4680 -77.1861 -2.2346 7.2130 -38.4633 -1.0859 1.5043 11.5988 12.7545 5.9171 9.0628 34.4128 -15.9329 -4.5409 76.9653 -6.3850 -34.4955 -1.1419 -0.5102 86.1877 1.6498 6.1425 58.2507 1.0356 2.0868 33.3080 1.0561 1.2041 33.6991 6.2953 18.2953 2.0303 -66.5608 -0.7284 1.4420 -34.0007 2.3785 79.5558 3.9803 5.3565 63.0725 1.9407 0.3483 30.3755 0.8912 -0.0324 85.3288 4.2048 5.8529 64.1459 2.5139 -0.0702 24.1119 0.5466 -0.2704 84.5727 1.3717 6.0587 64.5375 1.1142 2.6754 32.1272 0.9374 1.2039 1.1870 -5.9674 -71.9373 -0.2257 0.0919 47.9544 12.7199 -5.4554 40.4878 -0.0000 0.0000 -0.0000 3.8033 13.0802 -74.0330 9.1988 -1.9241 94.2959 5.8012 3.5541 -3.1487 -0.0000 0.0000 -0.0881 
-0.5825 61.7528 -0.3001 -4.2288 -7.6954 -17.5999 2.6956 1.8969 6.1841 2.3403 0.1616 10.9353 2.3994 0.2145 10.9229 -0.6412 0.5747 -4.0115 3.2481 2.0836 -12.0870 0.0000 -0.0000 0.0000 0.0000 -0.0000 0.0000 0.0000 -0.0000 0.0000 -10.3194 0.2596 1.2170 -36.8435 -53.5127 3.8667 4.0167 -75.8092 -5.8464 32.2567 1.4439 6.8856 -87.1094 -1.6570 6.2427 -70.9430 -1.1015 2.6914 -39.6449 -1.2089 1.4981 -27.4483 -18.7358 32.1473 -5.5251 62.3419 19.9715 -8.9433 34.2455 9.4252 -80.4976 -3.9980 5.4563 -75.7546 -2.3194 0.7088 -36.7108 -1.1480 0.0261 -86.2711 -4.2124 5.9539 -76.8278 -3.0187 0.3008 -30.4438 -0.8571 -0.2879 -85.1995 2.6824 6.4680 -77.1861 -2.2346 7.2130 -38.4633 -1.0859 1.5043 11.5923 12.7699 5.9213 9.0340 34.3293 -15.9068 -4.7245 77.3247 -6.5733 -33.9259 -0.9578 -0.8690 86.1877 1.6498 6.1425 58.2507 1.0356 2.0868 33.3080 1.0561 1.2041 33.6990 6.2953 18.2953 2.0303 -66.5608 -0.7284 1.4420 -34.0007 2.3785 79.5558 3.9803 5.3565 63.0725 1.9407 0.3483 30.3755 0.8912 -0.0325 85.3288 4.2048 5.8529 64.1459 2.5139 -0.0702 24.1119 0.5466 -0.2704 84.5727 1.3717 6.0587 64.5376 1.1142 2.6754 32.1272 0.9374 1.2040 1.1881 -5.9498 -72.0289 -0.1188 0.1757 48.1762 12.8261 -5.4926 40.3399 0.0000 -0.0000 -0.0000 3.8248 13.1030 -73.9826 9.1989 -1.9251 94.2957 5.7625 3.5677 -3.1418 0.0000 -0.0000 -0.0924 
-0.5764 61.7523 -0.3094 -4.2228 -7.7368 -17.6342 2.6854 1.9232 6.2413 2.2755 0.1790 11.0282 2.3368 0.2344 11.0157 -0.5853 0.5465 -3.9644 3.2185 1.9886 -11.9345 0.0000 -0.0000 0.0000 0.0000 -0.0000 0.0000 0.0000 -0.0000 0.0000 -10.2702 0.2447 1.2193 -36.8410 -53.4329 3.6050 4.0215 -75.8208 -5.8514 32.6382 1.2477 6.7749 -87.1094 -1.6571 6.2427 -70.9430 -1.1015 2.6914 -39.6449 -1.2089 1.4980 -27.4483 -18.7358 32.1473 -5.5251 62.3419 19.9714 -8.9433 34.2455 9.4252 -80.4976 -3.9980 5.4563 -75.7546 -2.3194 0.7088 -36.7108 -1.1480 0.0261 -86.2710 -4.2124 5.9539 -76.8278 -3.0187 0.3007 -30.4437 -0.8571 -0.2879 -85.1995 2.6824 6.4680 -77.1861 -2.2346 7.2130 -38.4634 -1.0859 1.5043 11.5858 12.7854 5.9256 9.0045 34.2575 -15.8720 -4.9151 77.6769 -6.7684 -33.4978 -0.7330 -1.1485 86.1877 1.6499 6.1425 58.2507 1.0356 2.0868 33.3080 1.0561 1.2040 33.6990 6.2953 18.2953 2.0303 -66.5608 -0.7284 1.4419 -34.0007 2.3785 79.5558 3.9803 5.3565 63.0725 1.9407 0.3483 30.3755 0.8912 -0.0325 85.3287 4.2048 5.8529 64.1459 2.5139 -0.0702 24.1118 0.5466 -0.2704 84.5727 1.3717 6.0587 64.5376 1.1142 2.6754 32.1271 0.9374 1.2040 1.1919 -5.9361 -72.1265 -0.0132 0.2572 48.3986 12.9281 -5.5248 40.1879 0.0000 0.0000 0.0000 3.8459 13.1221 -73.9400 9.1989 -1.9260 94.2952 5.7275 3.5817 -3.1366 -0.0000 0.0000 -0.0947 
-0.5688 61.7522 -0.3171 -4.2232 -7.7731 -17.6561 2.6753 1.9492 6.2968 2.2117 0.1965 11.1162 2.2746 0.2549 11.1036 -0.5423 0.5222 -3.9093 3.2178 1.8992 -11.7976 0.0000 -0.0000 0.0000 0.0000 -0.0000 0.0000 0.0000 -0.0000 0.0000 -10.2395 0.2335 1.2196 -36.8319 -53.3569 3.3613 4.0275 -75.8352 -5.8576 33.0482 1.0517 6.6408 -87.1094 -1.6570 6.2427 -70.9430 -1.1015 2.6914 -39.6449 -1.2089 1.4981 -27.4483 -18.7358 32.1473 -5.5251 62.3419 19.9714 -8.9433 34.2455 9.4252 -80.4976 -3.9980 5.4562 -75.7546 -2.3194 0.7088 -36.7108 -1.1480 0.0261 -86.2711 -4.2124 5.9539 -76.8278 -3.0187 0.3008 -30.4438 -0.8571 -0.2880 -85.1995 2.6824 6.4680 -77.1861 -2.2345 7.2130 -38.4633 -1.0859 1.5043 11.5793 12.8012 5.9299 8.9589 34.2250 -15.7702 -5.0932 77.9887 -6.9506 -33.4848 -0.5176 -1.3574 86.1877 1.6498 6.1425 58.2507 1.0356 2.0868 33.3080 1.0561 1.2040 33.6990 6.2953 18.2953 2.0304 -66.5608 -0.7284 1.4420 -34.0007 2.3785 79.5557 3.9803 5.3565 63.0725 1.9407 0.3483 30.3755 0.8912 -0.0325 85.3287 4.2048 5.8529 64.1459 2.5139 -0.0702 24.1119 0.5466 -0.2704 84.5727 1.3717 6.0587 64.5375 1.1142 2.6754 32.1272 0.9374 1.2040 1.2012 -5.9294 -72.2346 0.0887 0.3344 48.6172 13.0307 -5.5533 40.0332 -0.0000 -0.0000 -0.0000 3.8639 13.1341 -73.9152 9.1985 -1.9268 94.2945 5.7140 3.6002 -3.1371 -0.0000 -0.0000 -0.0958 
-0.5616 61.7516 -0.3240 -4.2234 -7.8056 -17.6738 2.6643 1.9745 6.3506 2.1497 0.2136 11.2003 2.2142 0.2728 11.1875 -0.5155 0.4995 -3.8468 3.2293 1.8073 -11.6752 0.0000 -0.0000 0.0000 0.0000 -0.0000 0.0000 0.0000 -0.0000 0.0000 -10.2246 0.2297 1.2190 -36.8021 -53.2766 3.1167 4.0420 -75.8696 -5.8725 33.3691 0.9147 6.3958 -87.1094 -1.6571 6.2427 -70.9430 -1.1015 2.6914 -39.6449 -1.2089 1.4981 -27.4483 -18.7358 32.1473 -5.5251 62.3419 19.9714 -8.9433 34.2455 9.4252 -80.4976 -3.9980 5.4563 -75.7546 -2.3194 0.7088 -36.7108 -1.1480 0.0261 -86.2711 -4.2124 5.9539 -76.8278 -3.0187 0.3007 -30.4437 -0.8571 -0.2879 -85.1995 2.6824 6.4680 -77.1861 -2.2346 7.2130 -38.4633 -1.0859 1.5043 11.5731 12.8185 5.9342 8.8823 34.2172 -15.6606 -5.2710 78.2842 -7.1323 -33.5232 -0.2662 -1.5064 86.1877 1.6498 6.1425 58.2507 1.0356 2.0868 33.3080 1.0561 1.2041 33.6990 6.2953 18.2953 2.0303 -66.5607 -0.7284 1.4420 -34.0007 2.3785 79.5557 3.9803 5.3565 63.0725 1.9407 0.3483 30.3755 0.8912 -0.0325 85.3287 4.2048 5.8528 64.1459 2.5139 -0.0702 24.1119 0.5466 -0.2704 84.5727 1.3717 6.0587 64.5375 1.1142 2.6754 32.1272 0.9374 1.2040 1.2190 -5.9355 -72.3434 0.1924 0.4117 48.8373 13.1228 -5.5711 39.8758 -0.0000 0.0000 -0.0000 3.8810 13.1431 -73.8907 9.1981 -1.9276 94.2936 5.7023 3.6192 -3.1412 0.0000 0.0000 -0.0969 
-0.5549 61.7512 -0.3279 -4.2225 -7.8347 -17.6884 2.6473 1.9979 6.4028 2.0845 0.2306 11.2791 2.1496 0.2903 11.2662 -0.4873 0.4782 -3.7880 3.2654 1.7126 -11.5619 0.0000 -0.0000 0.0000 0.0000 -0.0000 0.0000 0.0000 -0.0000 0.0000 -10.2170 0.2267 1.2178 -36.7184 -53.2135 2.8595 4.0588 -75.9093 -5.8898 33.6567 0.7595 6.1899 -87.1094 -1.6571 6.2427 -70.9430 -1.1015 2.6914 -39.6449 -1.2089 1.4981 -27.4483 -18.7358 32.1473 -5.5251 62.3419 19.9714 -8.9433 34.2455 9.4252 -80.4976 -3.9980 5.4563 -75.7546 -2.3194 0.7088 -36.7108 -1.1480 0.0261 -86.2711 -4.2124 5.9539 -76.8278 -3.0187 0.3008 -30.4438 -0.8571 -0.2879 -85.1995 2.6824 6.4680 -77.1861 -2.2346 7.2130 -38.4633 -1.0859 1.5043 11.5670 12.8372 5.9385 8.8308 34.1988 -15.5488 -5.4566 78.5773 -7.3216 -33.5965 0.0182 -1.6255 86.1877 1.6498 6.1425 58.2507 1.0356 2.0868 33.3080 1.0561 1.2040 33.6990 6.2953 18.2953 2.0303 -66.5608 -0.7284 1.4420 -34.0007 2.3785 79.5558 3.9803 5.3565 63.0725 1.9407 0.3483 30.3755 0.8912 -0.0325 85.3287 4.2048 5.8528 64.1459 2.5139 -0.0702 24.1118 0.5466 -0.2704 84.5727 1.3717 6.0587 64.5375 1.1142 2.6754 32.1271 0.9374 1.2040 1.2335 -5.9437 -72.4577 0.2978 0.4891 49.0603 13.2108 -5.5836 39.7152 0.0000 0.0000 -0.0000 3.8950 13.1499 -73.8686 9.1976 -1.9290 94.2961 5.6917 3.6380 -3.1454 0.0000 0.0000 -0.0981 
-0.5479 61.7507 -0.3311 -4.2242 -7.8616 -17.6992 2.6284 2.0182 6.4498 2.0173 0.2467 11.3531 2.0868 0.3060 11.3402 -0.4660 0.4575 -3.7207 3.2975 1.6121 -11.4419 0.0000 -0.0000 0.0000 0.0000 -0.0000 0.0000 0.0000 -0.0000 0.0000 -10.2165 0.2243 1.2159 -36.6046 -53.1510 2.5931 4.0635 -75.9202 -5.8947 33.9822 0.5233 5.8894 -87.1094 -1.6570 6.2427 -70.9430 -1.1015 2.6914 -39.6449 -1.2089 1.4981 -27.4483 -18.7358 32.1473 -5.5251 62.3419 19.9715 -8.9433 34.2455 9.4252 -80.4976 -3.9980 5.4563 -75.7546 -2.3194 0.7088 -36.7108 -1.1480 0.0261 -86.2711 -4.2124 5.9539 -76.8278 -3.0187 0.3007 -30.4437 -0.8571 -0.2879 -85.1995 2.6824 6.4680 -77.1861 -2.2346 7.2130 -38.4633 -1.0859 1.5043 11.5608 12.8549 5.9428 8.7862 34.1672 -15.4460 -5.6554 78.8752 -7.5243 -33.6142 0.3510 -1.6698 86.1877 1.6498 6.1425 58.2508 1.0356 2.0868 33.3080 1.0561 1.2040 33.6990 6.2953 18.2953 2.0304 -66.5607 -0.7284 1.4420 -34.0007 2.3785 79.5558 3.9803 5.3565 63.0725 1.9407 0.3483 30.3755 0.8912 -0.0325 85.3287 4.2048 5.8529 64.1459 2.5139 -0.0702 24.1118 0.5466 -0.2704 84.5727 1.3717 6.0587 64.5376 1.1142 2.6754 32.1271 0.9374 1.2040 1.2483 -5.9544 -72.5749 0.3992 0.5622 49.2843 13.3006 -5.5963 39.5471 0.0000 0.0000 -0.0000 3.9080 13.1537 -73.8527 9.1972 -1.9305 94.2992 5.6820 3.6578 -3.1502 -0.0000 0.0000 -0.0990 
